<svg width="169" height="25" viewBox="0 0 169 25" fill="none" xmlns="http://www.w3.org/2000/svg">
<path d="M2.36133 7.99951C2.33105 7.79769 2.29574 7.58577 2.25537 7.36377C2.25537 7.45459 2.27051 7.38395 2.30078 7.15186C2.33105 6.91976 2.37142 6.52116 2.42188 5.95605C2.5026 5.84505 2.55811 5.74919 2.58838 5.66846C2.62874 5.57764 2.66406 5.49691 2.69434 5.42627C2.60352 5.31527 2.53288 5.22445 2.48242 5.15381C2.44206 5.07308 2.42188 5.00749 2.42188 4.95703C2.5026 4.34147 2.57829 3.75618 2.64893 3.20117C2.65902 3.0498 2.74479 2.87826 2.90625 2.68652C3.0778 2.49479 3.3099 2.28792 3.60254 2.06592C3.83464 1.87419 4.06169 1.71273 4.28369 1.58154C4.5057 1.45036 4.71761 1.3444 4.91943 1.26367C5.19189 1.17285 5.35335 1.09717 5.40381 1.03662C5.45426 0.976074 5.50977 0.945801 5.57031 0.945801C5.73177 0.945801 5.85286 1.02653 5.93359 1.18799C6.02441 1.34945 6.06982 1.59163 6.06982 1.91455C6.06982 2.0861 6.02441 2.32324 5.93359 2.62598C5.85286 2.92871 5.8125 3.15072 5.8125 3.29199C5.8125 3.35254 5.81755 3.58464 5.82764 3.98828C5.84782 4.39193 5.87305 4.97217 5.90332 5.729C5.91341 6.27393 5.9891 6.85417 6.13037 7.46973C6.28174 8.08529 6.47347 8.72607 6.70557 9.39209C7.01839 10.2599 7.35645 10.9108 7.71973 11.3447C8.08301 11.7686 8.48161 11.9805 8.91553 11.9805C9.25863 11.9805 9.71273 11.7585 10.2778 11.3145C10.8429 10.8704 11.509 10.2044 12.2759 9.31641C12.8612 8.63021 13.3809 7.98942 13.835 7.39404C14.2992 6.79867 14.6725 6.25374 14.9551 5.75928C15.2174 5.31527 15.5252 4.91667 15.8784 4.56348C16.2316 4.21029 16.6353 3.88737 17.0894 3.59473C17.2306 3.514 17.3467 3.4484 17.4375 3.39795C17.5283 3.34749 17.599 3.32227 17.6494 3.32227C17.8311 3.32227 17.9673 3.4585 18.0581 3.73096C18.159 4.00342 18.2095 4.40706 18.2095 4.94189C18.1489 5.43636 18.0985 5.92578 18.0581 6.41016C17.9673 7.16699 17.8311 7.9541 17.6494 8.77148C17.4779 9.58887 17.2508 10.4365 16.9683 11.3145C16.827 11.7585 16.7059 12.147 16.605 12.48C16.5041 12.813 16.4334 13.0955 16.3931 13.3276C16.3729 13.4588 16.3426 13.6253 16.3022 13.8271C16.272 14.0189 16.2367 14.2459 16.1963 14.5083C16.0954 14.7606 15.9844 15.0129 15.8633 15.2651C15.7624 15.467 15.6766 15.7091 15.606 15.9917C15.5454 16.2743 15.4899 16.6022 15.4395 16.9756C15.4395 17.0462 15.4344 17.137 15.4243 17.248C15.4142 17.359 15.4041 17.4751 15.394 17.5962C15.1619 18.6255 14.9248 19.6245 14.6826 20.5933C14.6624 20.6841 14.617 20.8001 14.5464 20.9414C14.4152 20.9818 14.2638 21.0675 14.0923 21.1987C13.9308 21.3299 13.7593 21.5116 13.5776 21.7437C13.396 21.9455 13.2446 22.0968 13.1235 22.1978C13.0024 22.2886 12.9116 22.334 12.8511 22.334C12.7703 22.334 12.7048 22.3088 12.6543 22.2583C12.6038 22.2078 12.5786 22.1221 12.5786 22.001C12.5887 21.9202 12.6038 21.8547 12.624 21.8042C12.7653 21.4611 12.8864 20.9666 12.9873 20.3208C13.0983 19.675 13.1992 18.8778 13.29 17.9292C13.3001 17.7274 13.3809 17.1825 13.5322 16.2944C13.6836 15.4064 13.9056 14.1753 14.1982 12.6011C14.2386 12.3488 14.2891 12.041 14.3496 11.6777C14.4202 11.3044 14.506 10.8805 14.6069 10.4062C14.6776 10.1641 14.7331 9.95719 14.7734 9.78564C14.8239 9.604 14.8491 9.47282 14.8491 9.39209C14.8491 9.29118 14.8289 9.22054 14.7886 9.18018C14.7583 9.12972 14.7078 9.10449 14.6372 9.10449C14.5767 9.10449 14.4657 9.18522 14.3042 9.34668C14.1427 9.49805 13.9409 9.73014 13.6987 10.043C13.5575 10.2145 13.4111 10.3962 13.2598 10.5879C13.1185 10.7796 12.9671 10.9663 12.8057 11.1479C12.5332 11.4305 12.2809 11.6979 12.0488 11.9502L10.9287 13.0703C10.8278 13.1309 10.7017 13.2065 10.5503 13.2974C10.409 13.3882 10.2375 13.4941 10.0356 13.6152C9.84391 13.918 9.53613 14.1803 9.1123 14.4023C8.69857 14.6143 8.3151 14.7202 7.96191 14.7202C7.53809 14.7202 7.12939 14.589 6.73584 14.3267C6.35238 14.0542 5.979 13.6405 5.61572 13.0854C5.45426 12.813 5.29281 12.5405 5.13135 12.2681C4.97998 11.9956 4.81348 11.7231 4.63184 11.4507L4.55615 11.4658C4.5057 11.5264 4.40983 11.9351 4.26855 12.6919C4.13737 13.4487 3.96582 14.5588 3.75391 16.022C3.52181 17.5256 3.34521 18.7062 3.22412 19.564C3.10303 20.4217 3.04248 20.9767 3.04248 21.229C3.0223 21.5721 2.95671 21.8395 2.8457 22.0312C2.74479 22.2129 2.58333 22.3188 2.36133 22.3491C2.25033 22.3592 2.09391 22.3895 1.89209 22.4399C1.69027 22.4803 1.44808 22.5358 1.16553 22.6064C1.11507 22.5964 1.06966 22.5812 1.0293 22.561C0.988932 22.5308 0.96875 22.4904 0.96875 22.4399L1.05957 21.8799L0.908203 21.3047C0.96875 20.9919 1.0293 20.6891 1.08984 20.3965C1.13021 19.791 1.16553 19.2209 1.1958 18.686C1.20589 18.575 1.24121 18.3883 1.30176 18.126C1.3724 17.8636 1.40771 17.6668 1.40771 17.5356C1.40771 17.465 1.39258 17.3641 1.3623 17.2329C1.33203 17.0916 1.31689 16.9857 1.31689 16.915C1.31689 16.36 1.40267 15.5376 1.57422 14.4478C1.75586 13.3579 1.84668 12.5304 1.84668 11.9653C1.81641 11.7332 1.78109 11.5011 1.74072 11.269C1.79118 10.9058 1.87191 10.4517 1.98291 9.90674C2.09391 9.36182 2.22005 8.72607 2.36133 7.99951ZM34.9658 19.7759C34.8952 19.8768 34.769 20.013 34.5874 20.1846C34.4159 20.3561 34.214 20.5327 33.9819 20.7144C33.7801 20.8758 33.5581 21.0423 33.3159 21.2139C33.0838 21.3854 32.8517 21.5418 32.6196 21.6831C32.327 21.8547 32.0243 22.0212 31.7114 22.1826C31.3986 22.334 31.0858 22.4551 30.7729 22.5459C30.4702 22.6367 30.1675 22.6922 29.8647 22.7124C29.5721 22.7326 29.2896 22.6973 29.0171 22.6064C28.8254 22.5459 28.6689 22.45 28.5479 22.3188C28.4368 22.1877 28.3511 22.0363 28.2905 21.8647C28.2502 21.7336 28.2199 21.5872 28.1997 21.4258C28.1896 21.2643 28.1846 21.1029 28.1846 20.9414C28.1846 20.7497 28.2048 20.5479 28.2451 20.3359C28.2956 20.1139 28.346 19.897 28.3965 19.6851C28.4368 19.4933 28.4873 19.3016 28.5479 19.1099C28.6084 18.9181 28.6689 18.7365 28.7295 18.5649C28.8405 18.2319 28.9364 17.9443 29.0171 17.7021C29.0978 17.4499 29.1533 17.238 29.1836 17.0664C29.2441 16.7435 29.2542 16.5215 29.2139 16.4004C29.1735 16.2692 29.1029 16.1784 29.002 16.1279C28.9414 16.0977 28.8455 16.1027 28.7144 16.1431C28.5933 16.1834 28.457 16.2389 28.3057 16.3096C28.2249 16.3398 28.1644 16.3449 28.124 16.3247C28.0938 16.3045 28.0332 16.3247 27.9424 16.3853C27.8717 16.4256 27.7658 16.5114 27.6245 16.6426C27.4832 16.7637 27.3773 16.8494 27.3066 16.8999C27.2562 16.9302 27.2108 16.9453 27.1704 16.9453C27.13 16.9453 27.0846 16.9604 27.0342 16.9907C26.9736 17.0311 26.8979 17.0967 26.8071 17.1875C26.7264 17.2783 26.6608 17.3439 26.6104 17.3843C26.4893 17.4852 26.3783 17.5861 26.2773 17.687C26.1764 17.7778 26.0957 17.8535 26.0352 17.9141C26.0957 18.015 26.1512 18.1209 26.2017 18.2319C26.2521 18.3429 26.2975 18.4438 26.3379 18.5347C26.459 18.8374 26.5448 19.1351 26.5952 19.4277C26.6558 19.7204 26.686 20.0029 26.686 20.2754C26.686 20.4368 26.686 20.6185 26.686 20.8203C26.686 21.012 26.6709 21.1836 26.6406 21.335C26.6003 21.5166 26.5347 21.6831 26.4438 21.8345C26.3631 21.9757 26.2925 22.1221 26.2319 22.2734C26.2118 22.3138 26.2067 22.3794 26.2168 22.4702C26.237 22.5509 26.237 22.6115 26.2168 22.6519C26.1058 22.8436 25.9645 23.0151 25.793 23.1665C25.6315 23.3179 25.4751 23.4591 25.3237 23.5903C25.0715 23.8224 24.7889 24.0041 24.4761 24.1353C24.1733 24.2664 23.8605 24.332 23.5376 24.332C23.356 24.332 23.1743 24.3169 22.9927 24.2866C22.811 24.2563 22.6395 24.221 22.478 24.1807C22.2964 24.1201 22.1147 24.0444 21.9331 23.9536C21.7515 23.8729 21.59 23.7821 21.4487 23.6812C21.2772 23.5601 21.1157 23.4188 20.9644 23.2573C20.813 23.106 20.6919 22.9395 20.6011 22.7578C20.4901 22.5661 20.4093 22.3592 20.3589 22.1372C20.3084 21.9051 20.2832 21.668 20.2832 21.4258C20.2832 21.0423 20.3034 20.6942 20.3438 20.3813C20.3841 20.0685 20.4497 19.7305 20.5405 19.3672C20.6011 19.0947 20.6868 18.7869 20.7979 18.4438C20.9189 18.1007 21.0552 17.7021 21.2065 17.248C21.0552 17.4297 20.8786 17.6265 20.6768 17.8384C20.4749 18.0402 20.2681 18.242 20.0562 18.4438C19.925 18.575 19.7736 18.7012 19.6021 18.8223C19.4305 18.9333 19.2791 19.0493 19.1479 19.1704C18.9562 19.3521 18.7847 19.5286 18.6333 19.7002C18.492 19.8617 18.376 19.9777 18.2852 20.0483L17.6646 18.6709C17.7554 18.6104 17.8664 18.5246 17.9976 18.4136C18.1187 18.2925 18.2498 18.1714 18.3911 18.0503C18.5122 17.9393 18.6434 17.8132 18.7847 17.6719C18.936 17.5306 19.0824 17.3893 19.2236 17.248C19.4658 17.0059 19.7131 16.7485 19.9653 16.4761C20.2277 16.1935 20.4901 15.9009 20.7524 15.5981C20.8836 15.4468 21.0148 15.2904 21.146 15.1289C21.2873 14.9674 21.4336 14.7959 21.585 14.6143C21.6455 14.5436 21.6657 14.4326 21.6455 14.2812C21.6253 14.1299 21.6455 14.0138 21.7061 13.9331C21.8574 13.7313 22.0441 13.4941 22.2661 13.2217C22.4982 12.9492 22.6799 12.702 22.811 12.48C22.8817 12.3589 23.0229 12.1924 23.2349 11.9805C23.4569 11.7686 23.5981 11.6021 23.6587 11.481C23.8 11.2489 23.9412 11.1681 24.0825 11.2388C24.2238 11.3094 24.3348 11.4406 24.4155 11.6323C24.6678 11.9956 24.8343 12.2378 24.915 12.3589C24.9857 12.4497 25.0715 12.5557 25.1724 12.6768C25.2733 12.7878 25.3237 12.8735 25.3237 12.9341V13.4639C25.3237 13.5547 25.2077 13.7161 24.9756 13.9482C24.9453 14.0088 24.8545 14.1147 24.7031 14.2661C24.5618 14.4175 24.466 14.5184 24.4155 14.5688C24.3146 14.6698 24.2238 14.7707 24.1431 14.8716C24.0724 14.9725 24.0119 15.0936 23.9614 15.2349C23.9312 15.3257 23.8605 15.4417 23.7495 15.583C23.6385 15.7243 23.5679 15.8403 23.5376 15.9312C23.4771 16.133 23.3963 16.3096 23.2954 16.4609C23.2046 16.6123 23.139 16.7738 23.0986 16.9453C23.0179 17.2682 22.9271 17.5609 22.8262 17.8232C22.7354 18.0755 22.6748 18.3278 22.6445 18.5801C22.6143 18.8525 22.589 19.1149 22.5688 19.3672C22.5487 19.6094 22.5386 19.8465 22.5386 20.0786C22.5386 20.2401 22.5487 20.4268 22.5688 20.6387C22.589 20.8506 22.6496 21.0575 22.7505 21.2593C22.811 21.3905 22.8817 21.5065 22.9624 21.6074C23.0532 21.7083 23.1743 21.7891 23.3257 21.8496C23.4165 21.8799 23.5225 21.9051 23.6436 21.9253C23.7646 21.9455 23.9009 21.9556 24.0522 21.9556C24.133 21.9556 24.2642 21.9102 24.4458 21.8193C24.6274 21.7285 24.7738 21.6074 24.8848 21.4561C24.9352 21.3955 24.9958 21.3299 25.0664 21.2593C25.137 21.1785 25.1825 21.0928 25.2026 21.002C25.2228 20.9111 25.2228 20.8052 25.2026 20.6841C25.1825 20.563 25.1724 20.457 25.1724 20.3662C25.1724 20.235 25.1673 20.0988 25.1572 19.9575C25.1471 19.8162 25.127 19.6699 25.0967 19.5186C25.0059 19.4681 24.9049 19.4631 24.7939 19.5034C24.6829 19.5438 24.577 19.5841 24.4761 19.6245C24.3651 19.6649 24.2642 19.6851 24.1733 19.6851C24.0825 19.6851 24.0169 19.6094 23.9766 19.458C23.9665 19.3975 23.9261 19.3268 23.8555 19.2461C23.7949 19.1654 23.7596 19.0796 23.7495 18.9888C23.7293 18.8778 23.7293 18.7617 23.7495 18.6406C23.7798 18.5195 23.7949 18.3984 23.7949 18.2773C23.7949 18.126 23.8151 17.9696 23.8555 17.8081C23.8958 17.6366 23.9261 17.46 23.9463 17.2783C23.9564 17.1875 24.0522 17.0715 24.2339 16.9302C24.4155 16.7889 24.6022 16.6729 24.7939 16.582C24.9857 16.4912 25.1623 16.4559 25.3237 16.4761C25.4953 16.4963 25.5811 16.6123 25.5811 16.8242C25.6719 16.7536 25.7677 16.6678 25.8687 16.5669C25.9797 16.466 26.0957 16.3701 26.2168 16.2793C26.3883 16.138 26.575 15.9867 26.7769 15.8252C26.9888 15.6536 27.2108 15.4771 27.4429 15.2954C27.6144 15.1743 27.7961 15.0431 27.9878 14.9019C28.1795 14.7505 28.3713 14.6092 28.563 14.478C28.7244 14.3569 28.891 14.2409 29.0625 14.1299C29.2441 14.0088 29.4207 13.9028 29.5923 13.812C29.7941 13.701 29.9909 13.6001 30.1826 13.5093C30.3844 13.4084 30.5661 13.3276 30.7275 13.2671C30.889 13.2166 31.0353 13.1813 31.1665 13.1611C31.3078 13.1309 31.4238 13.1208 31.5146 13.1309C31.6357 13.151 31.7367 13.1864 31.8174 13.2368C31.9082 13.2873 31.9839 13.3478 32.0444 13.4185C32.1353 13.5396 32.1958 13.696 32.2261 13.8877C32.2563 14.0794 32.2614 14.2913 32.2412 14.5234C32.2109 14.7454 32.1605 14.9876 32.0898 15.25C32.0293 15.5124 31.9536 15.7798 31.8628 16.0522C31.6912 16.2541 31.5954 16.3802 31.5752 16.4307C31.5348 16.5518 31.5146 16.6779 31.5146 16.8091C31.5146 16.9302 31.4945 17.0664 31.4541 17.2178C31.3936 17.3994 31.328 17.5911 31.2573 17.793C31.1867 17.9847 31.1261 18.1663 31.0757 18.3379C31.0252 18.5094 30.9849 18.686 30.9546 18.8677C30.9344 19.0392 30.9243 19.1956 30.9243 19.3369C30.9243 19.5186 30.9546 19.68 31.0151 19.8213C31.0858 19.9525 31.1816 20.0332 31.3027 20.0635C31.3633 20.0736 31.4289 20.1038 31.4995 20.1543C31.5701 20.2048 31.6458 20.2249 31.7266 20.2148C31.7871 20.2148 31.8527 20.1795 31.9233 20.1089C31.994 20.0382 32.0596 19.9979 32.1201 19.9878C32.2109 19.9575 32.3169 19.9323 32.438 19.9121C32.5591 19.8818 32.6751 19.8364 32.7861 19.7759C32.9072 19.7153 33.0182 19.6396 33.1191 19.5488C33.2301 19.4479 33.3411 19.3571 33.4521 19.2764C33.6035 19.1553 33.7549 19.0241 33.9062 18.8828C34.0576 18.7415 34.1989 18.5952 34.3301 18.4438L34.9658 19.7759ZM42.0498 18.4893C42.1204 18.4186 42.1961 18.3278 42.2769 18.2168C42.3475 18.0957 42.4333 17.9645 42.5342 17.8232L43.6997 17.021C43.841 16.8494 44.0579 16.6325 44.3506 16.3701C44.6432 16.0977 45.0065 15.7697 45.4404 15.3862C45.4909 15.2752 45.5716 15.1491 45.6826 15.0078C45.8037 14.8564 45.945 14.7101 46.1064 14.5688C46.2477 14.4377 46.389 14.3166 46.5303 14.2056C46.6715 14.0845 46.8027 13.9684 46.9238 13.8574C47.0752 13.7061 47.2165 13.5547 47.3477 13.4033C47.4889 13.252 47.6302 13.1056 47.7715 12.9644C47.9329 12.8231 48.0994 12.7121 48.271 12.6313C48.4425 12.5506 48.6292 12.5103 48.8311 12.5103C49.0531 12.5103 49.2196 12.5405 49.3306 12.6011C49.4517 12.6515 49.5173 12.7272 49.5273 12.8281C49.4264 13.0602 49.3205 13.2923 49.2095 13.5244L49.3003 13.6606C49.7443 13.4891 50.0924 13.363 50.3447 13.2822C50.597 13.2015 50.7585 13.1611 50.8291 13.1611C51.5658 13.1611 52.1157 13.3882 52.479 13.8423C52.8524 14.2863 53.0391 14.9624 53.0391 15.8706C53.0391 16.0422 53.0189 16.244 52.9785 16.4761C52.9382 16.7082 52.8726 16.9604 52.7817 17.2329C52.6808 17.5356 52.5698 17.7879 52.4487 17.9897C52.3377 18.1916 52.2318 18.3379 52.1309 18.4287C52.1712 18.5599 52.2166 18.6558 52.2671 18.7163C52.3175 18.7668 52.3831 18.792 52.4639 18.792C52.5446 18.792 52.6253 18.7668 52.7061 18.7163C52.7969 18.6659 52.9028 18.5902 53.0239 18.4893C53.1248 18.7113 53.2207 18.9434 53.3115 19.1855C53.4124 19.4176 53.5133 19.6497 53.6143 19.8818C53.4326 20.0433 53.256 20.1997 53.0845 20.3511C52.9129 20.5024 52.7313 20.6488 52.5396 20.79C52.3075 20.9818 52.0854 21.123 51.8735 21.2139C51.6717 21.2946 51.4699 21.335 51.2681 21.335C51.036 21.335 50.8442 21.2795 50.6929 21.1685C50.5415 21.0575 50.4204 20.901 50.3296 20.6992C50.0773 21.0322 49.7695 21.34 49.4062 21.6226C49.0531 21.895 48.6595 22.1221 48.2256 22.3037C47.9733 22.4248 47.7412 22.5207 47.5293 22.5913C47.3275 22.6519 47.1408 22.6821 46.9692 22.6821C46.9188 22.6821 46.8179 22.7023 46.6665 22.7427C46.5252 22.783 46.4092 22.8032 46.3184 22.8032C45.7432 22.8032 45.2235 22.561 44.7593 22.0767C44.2951 21.5923 44.063 21.0524 44.063 20.457C44.063 20.2148 44.1185 19.897 44.2295 19.5034C44.3405 19.0998 44.396 18.8626 44.396 18.792C44.396 18.7214 44.3708 18.6659 44.3203 18.6255C44.2799 18.575 44.2194 18.5498 44.1387 18.5498C44.0882 18.5498 43.9671 18.6255 43.7754 18.7769C43.5837 18.9282 43.3112 19.1452 42.958 19.4277C42.9277 19.4681 42.8924 19.5286 42.8521 19.6094C42.8117 19.6901 42.7461 19.7809 42.6553 19.8818C42.5745 19.6497 42.4837 19.4176 42.3828 19.1855C42.2819 18.9434 42.1709 18.7113 42.0498 18.4893ZM49.3306 15.7192C49.2801 15.7293 49.2044 15.7848 49.1035 15.8857C49.0127 15.9766 48.9219 16.0926 48.8311 16.2339C48.6898 16.466 48.5283 16.7183 48.3467 16.9907C48.2357 17.1118 48.1146 17.2077 47.9834 17.2783C47.8623 17.3389 47.721 17.3843 47.5596 17.4146C47.4587 17.4246 47.3527 17.5256 47.2417 17.7173C47.1307 17.8989 47.0197 18.1663 46.9087 18.5195C46.7977 18.8324 46.717 19.0998 46.6665 19.3218C46.616 19.5438 46.5908 19.7305 46.5908 19.8818C46.5908 20.1644 46.6615 20.3763 46.8027 20.5176C46.944 20.6589 47.161 20.7295 47.4536 20.7295C47.9178 20.7295 48.3416 20.6034 48.7251 20.3511C49.1187 20.0887 49.487 19.7002 49.8301 19.1855C49.9915 18.9938 50.1429 18.8122 50.2842 18.6406C50.3649 18.5801 50.4305 18.4842 50.481 18.353C50.5314 18.2118 50.5819 18.0402 50.6323 17.8384L50.9048 16.9756C50.814 16.6729 50.7282 16.4357 50.6475 16.2642C50.5667 16.0825 50.486 15.9715 50.4053 15.9312C50.3548 15.9009 50.2438 15.8706 50.0723 15.8403C49.9007 15.8 49.6535 15.7596 49.3306 15.7192ZM60.5166 15.1743C60.2744 15.3156 60.0776 15.4215 59.9263 15.4922C59.785 15.5628 59.6084 15.689 59.3965 15.8706C59.2451 16.022 59.0837 16.1834 58.9121 16.355C58.7406 16.5164 58.569 16.688 58.3975 16.8696C58.0947 17.2026 57.8071 17.5457 57.5347 17.8989C57.2622 18.2521 57.02 18.5952 56.8081 18.9282C56.5356 19.3521 56.2783 19.7204 56.0361 20.0332C55.7939 20.3359 55.6729 20.5781 55.6729 20.7598C55.7334 21.002 55.8444 21.1281 56.0059 21.1382C56.1169 21.1382 56.2581 21.1382 56.4297 21.1382C56.6012 21.1281 56.7627 21.1029 56.9141 21.0625C57.0452 21.0221 57.1663 20.9616 57.2773 20.8809C57.3883 20.79 57.5145 20.7043 57.6558 20.6235C57.7466 20.5731 57.8778 20.4974 58.0493 20.3965C58.231 20.2956 58.3672 20.2148 58.458 20.1543C58.6094 20.0332 58.7103 19.9172 58.7607 19.8062C58.8213 19.6951 58.9172 19.5539 59.0483 19.3823C59.2603 19.1099 59.457 18.8021 59.6387 18.459C59.8304 18.1058 59.9868 17.7324 60.1079 17.3389C60.229 16.9554 60.3249 16.6174 60.3955 16.3247C60.4762 16.0321 60.5166 15.6486 60.5166 15.1743ZM62.2422 12.4346C62.4844 12.4548 62.7266 12.4951 62.9688 12.5557C63.221 12.6061 63.3774 12.7222 63.438 12.9038C63.4582 12.9543 63.4733 13.0148 63.4834 13.0854C63.4935 13.146 63.4985 13.2065 63.4985 13.2671C63.4985 13.5093 63.4178 13.7716 63.2563 14.0542C63.105 14.3368 62.8477 14.4932 62.4844 14.5234C62.4844 14.7959 62.4743 14.9927 62.4541 15.1138C62.4339 15.2248 62.4087 15.4115 62.3784 15.6738C62.3381 15.9665 62.2826 16.2541 62.2119 16.5366C62.1514 16.8192 62.0757 17.0967 61.9849 17.3691C61.9041 17.6113 61.8083 17.8586 61.6973 18.1108C61.5964 18.353 61.4854 18.5851 61.3643 18.8071C61.2129 19.1099 61.0413 19.4025 60.8496 19.6851C60.6579 19.9676 60.4611 20.23 60.2593 20.4722C60.0675 20.7144 59.8556 20.9465 59.6235 21.1685C59.4015 21.3905 59.1745 21.5973 58.9424 21.7891C58.8011 21.9001 58.6346 22.001 58.4429 22.0918C58.2612 22.1725 58.0947 22.2583 57.9434 22.3491C57.8223 22.4299 57.7113 22.5207 57.6104 22.6216C57.5094 22.7225 57.3984 22.7982 57.2773 22.8486C57.0654 22.9395 56.8434 23.0252 56.6113 23.106C56.3792 23.1968 56.1572 23.2674 55.9453 23.3179C55.7031 23.3784 55.4609 23.4188 55.2188 23.439C54.9867 23.4591 54.7646 23.4642 54.5527 23.4541C54.0785 23.4238 53.7202 23.2826 53.478 23.0303C53.2358 22.778 53.1147 22.3844 53.1147 21.8496C53.1147 21.4762 53.1753 21.1331 53.2964 20.8203C53.4074 20.4974 53.5638 20.1997 53.7656 19.9272L53.9927 19.6396L53.6294 19.8818C53.5184 19.791 53.4124 19.6043 53.3115 19.3218C53.2005 19.0392 53.1097 18.7617 53.0391 18.4893C53.3115 18.4388 53.5789 18.2773 53.8413 18.0049C54.1138 17.7223 54.5679 17.2581 55.2036 16.6123C55.6678 16.138 56.1169 15.7344 56.5508 15.4014C56.9847 15.0583 57.3883 14.7707 57.7617 14.5386C57.9938 14.3973 58.2057 14.2661 58.3975 14.145C58.5993 14.0138 58.8213 13.8877 59.0635 13.7666C59.235 13.6758 59.4318 13.5749 59.6538 13.4639C59.8758 13.3529 60.1382 13.2318 60.4409 13.1006C60.4207 12.8382 60.3804 12.5758 60.3198 12.3135C60.2593 12.041 60.229 11.7837 60.229 11.5415C60.2088 11.2489 60.1836 10.9512 60.1533 10.6484C60.1331 10.3356 60.123 10.0531 60.123 9.80078C60.123 9.55859 60.1382 9.32145 60.1685 9.08936C60.2088 8.84717 60.2593 8.61507 60.3198 8.39307C60.3804 8.1307 60.4661 7.86833 60.5771 7.60596C60.6882 7.3335 60.8143 7.06608 60.9556 6.80371C61.0868 6.55143 61.2734 6.29915 61.5156 6.04688C61.7679 5.7946 62.0454 5.55241 62.3481 5.32031C62.5802 5.13867 62.8275 4.96712 63.0898 4.80566C63.3522 4.63411 63.6095 4.48275 63.8618 4.35156C64.0838 4.23047 64.3311 4.11442 64.6035 4.00342C64.8861 3.88232 65.1737 3.77132 65.4663 3.67041C65.8599 3.53923 66.1626 3.44336 66.3745 3.38281C66.5864 3.32227 66.874 3.25667 67.2373 3.18604C67.651 3.14567 67.9134 3.14062 68.0244 3.1709C68.1051 3.20117 68.1455 3.25163 68.1455 3.32227C68.1556 3.38281 68.2161 3.43327 68.3271 3.47363C68.4684 3.52409 68.6198 3.58464 68.7812 3.65527C68.9427 3.72591 69.1092 3.79655 69.2808 3.86719C69.3413 3.88737 69.5078 3.88737 69.7803 3.86719C70.0628 3.84701 70.2344 3.84701 70.2949 3.86719C70.6885 3.99837 70.9559 4.13965 71.0972 4.29102C71.2384 4.43229 71.2586 4.51302 71.1577 4.5332C71.077 4.54329 71.0164 4.5887 70.9761 4.66943C70.9458 4.74007 70.8853 4.78548 70.7944 4.80566C70.7036 4.82585 70.5876 4.82585 70.4463 4.80566C70.305 4.78548 70.189 4.79053 70.0981 4.8208C69.9569 4.85107 69.8005 4.88135 69.6289 4.91162C69.4674 4.94189 69.3161 4.98226 69.1748 5.03271C69.0335 5.07308 68.8923 5.13867 68.751 5.22949C68.6198 5.31022 68.4836 5.37581 68.3423 5.42627C68.0496 5.52718 67.757 5.63818 67.4644 5.75928C67.1717 5.88037 66.8791 6.00146 66.5864 6.12256C66.3543 6.21338 66.1222 6.30924 65.8901 6.41016C65.658 6.51107 65.4411 6.60693 65.2393 6.69775C65.0879 6.7583 64.9062 6.87435 64.6943 7.0459C64.4925 7.20736 64.2806 7.32845 64.0586 7.40918C63.9577 7.43945 63.8416 7.52018 63.7104 7.65137C63.5793 7.78255 63.4834 7.85319 63.4229 7.86328C63.0898 7.90365 62.8678 7.96419 62.7568 8.04492C62.6458 8.12565 62.5601 8.21647 62.4995 8.31738C62.3481 8.54948 62.2321 8.79671 62.1514 9.05908C62.0706 9.32145 62.0202 9.58887 62 9.86133C62 10.0732 62.005 10.2902 62.0151 10.5122C62.0353 10.7241 62.0454 10.936 62.0454 11.1479C62.0454 11.3599 62.0706 11.5869 62.1211 11.8291C62.1816 12.0612 62.222 12.263 62.2422 12.4346ZM62.1211 18.4893C62.2422 18.2773 62.3986 18.0654 62.5903 17.8535C62.7821 17.6315 63.0243 17.4045 63.3169 17.1724C63.3472 16.9705 63.3774 16.7738 63.4077 16.582C63.438 16.3802 63.4582 16.1784 63.4683 15.9766C63.4985 15.8353 63.5439 15.6688 63.6045 15.4771C63.6751 15.2853 63.7508 15.0785 63.8315 14.8564C63.9224 14.6344 64.0435 14.3569 64.1948 14.0239C64.3563 13.6909 64.5632 13.3175 64.8154 12.9038C65.0273 12.6717 65.2493 12.4194 65.4814 12.147C65.7135 11.8644 65.9456 11.5819 66.1777 11.2993C66.2887 11.2085 66.4098 11.1227 66.541 11.042C66.6722 10.9613 66.8034 10.8704 66.9346 10.7695C67.0557 10.7292 67.1919 10.6938 67.3433 10.6636C67.4946 10.6333 67.6611 10.6182 67.8428 10.6182C68.0951 10.6182 68.2969 10.6434 68.4482 10.6938C68.6097 10.7443 68.7409 10.8301 68.8418 10.9512C68.9124 11.0319 68.978 11.153 69.0386 11.3145C69.1092 11.4759 69.1748 11.6727 69.2354 11.9048C69.2656 12.1066 69.3009 12.3286 69.3413 12.5708C69.3413 12.5103 69.3211 12.5355 69.2808 12.6465C69.2505 12.7575 69.2 12.9341 69.1294 13.1763L68.9932 13.6606C68.8519 14.145 68.534 14.7051 68.0396 15.3408C67.5451 15.9766 66.8791 16.7031 66.0415 17.5205C65.9709 17.5911 65.9103 17.682 65.8599 17.793C65.8094 17.8939 65.7842 18.0049 65.7842 18.126C65.7842 18.3379 65.8195 18.5246 65.8901 18.686C65.9709 18.8475 66.0819 18.9686 66.2231 19.0493C66.3039 19.1099 66.43 19.1704 66.6016 19.231C66.7832 19.2915 66.9951 19.347 67.2373 19.3975C67.6309 19.3672 67.9891 19.3016 68.312 19.2007C68.6349 19.0998 68.9225 18.9787 69.1748 18.8374C69.2253 18.8071 69.306 18.7668 69.417 18.7163C69.528 18.6558 69.639 18.5801 69.75 18.4893C69.8812 18.7819 69.9972 19.0443 70.0981 19.2764C70.1991 19.5085 70.2798 19.7103 70.3403 19.8818C69.7651 20.4469 69.2404 20.8758 68.7661 21.1685C68.3019 21.451 67.873 21.5923 67.4795 21.5923C67.318 21.6932 67.1313 21.7689 66.9194 21.8193C66.7176 21.8597 66.4754 21.8799 66.1929 21.8799C65.8195 21.8799 65.4865 21.8244 65.1938 21.7134C64.9113 21.6024 64.6742 21.4409 64.4824 21.229C64.3815 21.1281 64.2806 20.9818 64.1797 20.79C64.0788 20.5882 63.9728 20.3511 63.8618 20.0786C63.771 19.8566 63.6852 19.6951 63.6045 19.5942C63.5238 19.4832 63.4329 19.4277 63.332 19.4277C63.2513 19.4277 63.1605 19.4681 63.0596 19.5488C62.9587 19.6195 62.8477 19.7305 62.7266 19.8818C62.6862 19.7305 62.6156 19.5438 62.5146 19.3218C62.4137 19.0998 62.2826 18.8223 62.1211 18.4893ZM66.9648 13.5698C66.7428 13.5698 66.4451 13.8625 66.0718 14.4478C65.6984 15.0229 65.5117 15.4468 65.5117 15.7192C65.5117 15.7798 65.5218 15.8252 65.542 15.8555C65.5723 15.8757 65.6278 15.8857 65.7085 15.8857C65.8195 15.8857 65.9103 15.8302 65.981 15.7192C66.0516 15.5981 66.1172 15.4871 66.1777 15.3862C66.2887 15.2853 66.3947 15.1794 66.4956 15.0684C66.6066 14.9473 66.7126 14.8312 66.8135 14.7202C66.9346 14.5789 67.0254 14.4377 67.0859 14.2964C67.1465 14.1551 67.1768 14.0138 67.1768 13.8726C67.1768 13.7817 67.1566 13.7111 67.1162 13.6606C67.0859 13.6001 67.0355 13.5698 66.9648 13.5698ZM69.75 18.4893L69.8862 18.3682C69.8963 18.2572 69.967 18.126 70.0981 17.9746C70.2293 17.8232 70.416 17.6466 70.6582 17.4448C70.8096 17.3338 70.966 17.2279 71.1274 17.127C71.299 17.026 71.4604 16.915 71.6118 16.7939C72.2476 16.249 72.8631 15.7243 73.4585 15.2197C73.8016 14.917 74.1447 14.6597 74.4878 14.4478C74.8309 14.2257 75.1538 14.0492 75.4565 13.918C75.6685 13.6455 76.062 13.368 76.6372 13.0854C77.2225 12.8029 77.6968 12.6616 78.0601 12.6616C78.2013 12.6616 78.3123 12.702 78.3931 12.7827C78.4839 12.8634 78.5394 12.9644 78.5596 13.0854V13.918C78.5596 14.2106 78.4738 14.473 78.3022 14.7051C78.1408 14.9271 77.8936 15.134 77.5605 15.3257C77.3385 15.4266 77.1165 15.5376 76.8945 15.6587C76.6725 15.7798 76.4505 15.8908 76.2285 15.9917C76.1478 16.0926 75.9308 16.2843 75.5776 16.5669C75.2345 16.8394 74.7653 17.2077 74.1699 17.6719C73.8975 17.8838 73.6704 18.0755 73.4888 18.2471C73.3071 18.4085 73.181 18.5397 73.1104 18.6406C73.0094 18.8324 72.9287 19.0443 72.8682 19.2764C72.8177 19.5085 72.7925 19.7759 72.7925 20.0786C72.7925 20.3107 72.8278 20.5125 72.8984 20.6841C72.9691 20.8455 73.075 20.9767 73.2163 21.0776C73.3172 21.1483 73.4535 21.2189 73.625 21.2896C73.8066 21.3602 74.0286 21.4308 74.291 21.5015C74.4424 21.4409 74.6392 21.3854 74.8813 21.335C75.1336 21.2744 75.4111 21.1987 75.7139 21.1079C76.057 20.9061 76.4051 20.6942 76.7583 20.4722C77.1216 20.2502 77.4798 20.0231 77.833 19.791C77.8835 19.7607 77.944 19.7305 78.0146 19.7002C78.0954 19.6598 78.1761 19.6043 78.2568 19.5337C78.3577 19.4025 78.494 19.2511 78.6655 19.0796C78.8472 18.908 79.0641 18.7113 79.3164 18.4893C79.7201 19.3672 79.9219 19.8314 79.9219 19.8818C79.5485 20.1846 79.1701 20.4974 78.7866 20.8203C78.4032 21.1331 77.9642 21.3905 77.4697 21.5923C77.3083 21.7235 77.172 21.8446 77.061 21.9556C76.5565 22.4601 75.9661 22.8385 75.29 23.0908C74.624 23.3532 73.8621 23.4844 73.0044 23.4844C72.8127 23.4844 72.6411 23.4692 72.4897 23.439C72.3384 23.4087 72.2122 23.3683 72.1113 23.3179C71.8086 23.116 71.5513 22.9395 71.3394 22.7881C71.1174 22.6266 70.9307 22.4753 70.7793 22.334C70.6279 22.1826 70.5169 22.0413 70.4463 21.9102C70.3555 21.7689 70.2949 21.5973 70.2646 21.3955C70.2243 21.1937 70.2041 20.9465 70.2041 20.6538C70.2041 20.5731 70.2293 20.4419 70.2798 20.2603C70.3302 20.0786 70.3555 19.9525 70.3555 19.8818C70.2848 19.6598 70.1991 19.4328 70.0981 19.2007C69.9972 18.9686 69.8812 18.7314 69.75 18.4893ZM79.3164 18.4893C79.3568 18.4186 79.4123 18.3429 79.4829 18.2622C79.5435 18.1714 79.6191 18.0654 79.71 17.9443C79.8109 17.8636 79.9421 17.7476 80.1035 17.5962C80.265 17.4448 80.4466 17.2682 80.6484 17.0664C80.8301 16.8646 81.0521 16.6174 81.3145 16.3247C81.5768 16.022 81.8947 15.6587 82.2681 15.2349C82.4295 15.0633 82.6313 14.8464 82.8735 14.584C83.1157 14.3115 83.4033 13.9886 83.7363 13.6152C84.0189 13.2822 84.3216 13.035 84.6445 12.8735C84.9674 12.7121 85.3105 12.6313 85.6738 12.6313C86.0371 12.6313 86.3045 12.7474 86.4761 12.9795C86.6476 13.2015 86.7334 13.5295 86.7334 13.9634C86.7334 14.1955 86.6476 14.6395 86.4761 15.2954C86.3045 15.9513 86.0371 16.8192 85.6738 17.8989C85.583 18.1007 85.4972 18.2925 85.4165 18.4741C85.356 18.6053 85.3156 18.7214 85.2954 18.8223C85.2752 18.9232 85.2651 18.9989 85.2651 19.0493C85.2651 19.1099 85.3005 19.1855 85.3711 19.2764C85.4215 19.2461 85.467 19.2057 85.5073 19.1553C85.5578 19.1048 85.6133 19.0443 85.6738 18.9736C85.7546 18.8223 85.8757 18.6659 86.0371 18.5044C86.2087 18.3328 86.4105 18.1462 86.6426 17.9443C86.7334 17.7728 86.8494 17.6063 86.9907 17.4448C87.1421 17.2733 87.3086 17.1169 87.4902 16.9756C87.5306 16.9352 87.5811 16.8696 87.6416 16.7788C87.7122 16.688 87.793 16.5921 87.8838 16.4912C88.015 16.36 88.1714 16.2238 88.353 16.0825C88.5347 15.9412 88.7466 15.7949 88.9888 15.6436C89.2612 15.5023 89.5034 15.3913 89.7153 15.3105C89.9373 15.2298 90.1291 15.1895 90.2905 15.1895C90.6034 15.1895 90.8809 15.2651 91.123 15.4165C91.3652 15.5679 91.5721 15.805 91.7437 16.1279C91.9455 16.7536 92.1372 17.3338 92.3188 17.8687C92.4299 18.1815 92.5509 18.4136 92.6821 18.5649C92.8234 18.7163 92.9798 18.792 93.1514 18.792C93.2826 18.792 93.3986 18.7668 93.4995 18.7163C93.6105 18.6659 93.7114 18.5902 93.8022 18.4893L94.4077 19.8818C94.2362 20.0231 94.0596 20.1694 93.8779 20.3208C93.6963 20.4722 93.5197 20.6185 93.3481 20.7598C93.116 20.9717 92.8991 21.123 92.6973 21.2139C92.4954 21.2946 92.2936 21.335 92.0918 21.335C91.8597 21.335 91.6377 21.2845 91.4258 21.1836C91.2139 21.0827 91.0322 20.9313 90.8809 20.7295C90.8001 20.6488 90.6992 20.5024 90.5781 20.2905C90.457 20.0685 90.3158 19.7961 90.1543 19.4731C90.0231 19.342 89.8717 19.1704 89.7002 18.9585C89.5387 18.7365 89.347 18.4792 89.125 18.1865L88.9888 18.1411C88.797 18.2017 88.6053 18.2925 88.4136 18.4136C88.2319 18.5347 88.0352 18.6911 87.8232 18.8828C87.3691 19.2865 87.0412 19.5387 86.8394 19.6396C86.6375 19.7406 86.5013 19.8566 86.4307 19.9878C86.2894 20.23 86.0472 20.5428 85.7041 20.9263C85.361 21.3097 84.9321 21.7638 84.4175 22.2886C84.2863 22.4198 84.1551 22.5509 84.0239 22.6821C83.8927 22.8032 83.7616 22.9243 83.6304 23.0454C83.4992 23.1564 83.3478 23.2321 83.1763 23.2725C83.0148 23.3229 82.8332 23.3481 82.6313 23.3481C82.2277 23.3481 82.0057 23.2119 81.9653 22.9395C81.9351 22.6569 81.9048 22.3743 81.8745 22.0918C82.0259 21.668 82.1974 21.1382 82.3892 20.5024C82.5809 19.8667 82.8029 19.125 83.0552 18.2773C83.0552 18.2269 83.0703 18.1613 83.1006 18.0806C83.141 17.9897 83.1864 17.8737 83.2368 17.7324C83.2873 17.6012 83.3226 17.4902 83.3428 17.3994C83.363 17.2985 83.373 17.2127 83.373 17.1421C83.373 17.0715 83.3478 17.016 83.2974 16.9756C83.2469 16.9352 83.1662 16.915 83.0552 16.915C82.9543 16.915 82.818 16.9756 82.6465 17.0967C82.485 17.2178 82.2882 17.4095 82.0562 17.6719C81.7736 17.9746 81.5465 18.2118 81.375 18.3833C81.2035 18.5549 81.0874 18.6558 81.0269 18.686C80.9259 18.7567 80.8049 18.8576 80.6636 18.9888C80.5324 19.12 80.381 19.2663 80.2095 19.4277C80.1893 19.4681 80.159 19.5286 80.1187 19.6094C80.0783 19.6901 80.0127 19.7809 79.9219 19.8818C79.8815 19.7305 79.8109 19.5438 79.71 19.3218C79.609 19.0998 79.4779 18.8223 79.3164 18.4893ZM93.7871 18.4893C93.9082 18.2773 94.0646 18.0654 94.2563 17.8535C94.4481 17.6315 94.6903 17.4045 94.9829 17.1724C95.0132 16.9705 95.0435 16.7738 95.0737 16.582C95.104 16.3802 95.1242 16.1784 95.1343 15.9766C95.1646 15.8353 95.21 15.6688 95.2705 15.4771C95.3411 15.2853 95.4168 15.0785 95.4976 14.8564C95.5884 14.6344 95.7095 14.3569 95.8608 14.0239C96.0223 13.6909 96.2292 13.3175 96.4814 12.9038C96.6934 12.6717 96.9154 12.4194 97.1475 12.147C97.3796 11.8644 97.6117 11.5819 97.8438 11.2993C97.9548 11.2085 98.0758 11.1227 98.207 11.042C98.3382 10.9613 98.4694 10.8704 98.6006 10.7695C98.7217 10.7292 98.8579 10.6938 99.0093 10.6636C99.1606 10.6333 99.3271 10.6182 99.5088 10.6182C99.7611 10.6182 99.9629 10.6434 100.114 10.6938C100.276 10.7443 100.407 10.8301 100.508 10.9512C100.578 11.0319 100.644 11.153 100.705 11.3145C100.775 11.4759 100.841 11.6727 100.901 11.9048C100.932 12.1066 100.967 12.3286 101.007 12.5708C101.007 12.5103 100.987 12.5355 100.947 12.6465C100.917 12.7575 100.866 12.9341 100.795 13.1763L100.659 13.6606C100.518 14.145 100.2 14.7051 99.7056 15.3408C99.2111 15.9766 98.5451 16.7031 97.7075 17.5205C97.6369 17.5911 97.5763 17.682 97.5259 17.793C97.4754 17.8939 97.4502 18.0049 97.4502 18.126C97.4502 18.3379 97.4855 18.5246 97.5562 18.686C97.6369 18.8475 97.7479 18.9686 97.8892 19.0493C97.9699 19.1099 98.096 19.1704 98.2676 19.231C98.4492 19.2915 98.6611 19.347 98.9033 19.3975C99.2969 19.3672 99.6551 19.3016 99.978 19.2007C100.301 19.0998 100.589 18.9787 100.841 18.8374C100.891 18.8071 100.972 18.7668 101.083 18.7163C101.194 18.6558 101.305 18.5801 101.416 18.4893C101.547 18.7819 101.663 19.0443 101.764 19.2764C101.865 19.5085 101.946 19.7103 102.006 19.8818C101.431 20.4469 100.906 20.8758 100.432 21.1685C99.9679 21.451 99.5391 21.5923 99.1455 21.5923C98.984 21.6932 98.7974 21.7689 98.5854 21.8193C98.3836 21.8597 98.1414 21.8799 97.8589 21.8799C97.4855 21.8799 97.1525 21.8244 96.8599 21.7134C96.5773 21.6024 96.3402 21.4409 96.1484 21.229C96.0475 21.1281 95.9466 20.9818 95.8457 20.79C95.7448 20.5882 95.6388 20.3511 95.5278 20.0786C95.437 19.8566 95.3512 19.6951 95.2705 19.5942C95.1898 19.4832 95.099 19.4277 94.998 19.4277C94.9173 19.4277 94.8265 19.4681 94.7256 19.5488C94.6247 19.6195 94.5137 19.7305 94.3926 19.8818C94.3522 19.7305 94.2816 19.5438 94.1807 19.3218C94.0798 19.0998 93.9486 18.8223 93.7871 18.4893ZM98.6309 13.5698C98.4089 13.5698 98.1112 13.8625 97.7378 14.4478C97.3644 15.0229 97.1777 15.4468 97.1777 15.7192C97.1777 15.7798 97.1878 15.8252 97.208 15.8555C97.2383 15.8757 97.2938 15.8857 97.3745 15.8857C97.4855 15.8857 97.5763 15.8302 97.647 15.7192C97.7176 15.5981 97.7832 15.4871 97.8438 15.3862C97.9548 15.2853 98.0607 15.1794 98.1616 15.0684C98.2726 14.9473 98.3786 14.8312 98.4795 14.7202C98.6006 14.5789 98.6914 14.4377 98.752 14.2964C98.8125 14.1551 98.8428 14.0138 98.8428 13.8726C98.8428 13.7817 98.8226 13.7111 98.7822 13.6606C98.752 13.6001 98.7015 13.5698 98.6309 13.5698ZM101.416 18.4893C101.577 18.2773 101.739 18.0553 101.9 17.8232C102.637 17.2178 103.237 16.6375 103.702 16.0825C104.176 15.5174 104.519 14.9927 104.731 14.5083L104.58 13.7817C104.711 13.5295 105.034 13.2318 105.548 12.8887C106.073 12.5456 106.497 12.374 106.82 12.374C107.163 12.374 107.451 12.4749 107.683 12.6768C107.925 12.8786 108.157 13.0905 108.379 13.3125C108.49 13.3831 108.571 13.4386 108.621 13.479C109.025 13.7817 109.327 14.2005 109.529 14.7354C109.731 15.2702 109.832 15.9211 109.832 16.688C109.832 17.0916 109.676 17.6719 109.363 18.4287C109.05 19.1755 108.894 19.7406 108.894 20.124C108.894 20.1745 108.909 20.2148 108.939 20.2451C108.979 20.2754 109.03 20.2905 109.09 20.2905C109.222 20.2905 109.378 20.235 109.56 20.124C109.741 20.0029 109.938 19.8415 110.15 19.6396C110.685 19.1149 111.008 18.8273 111.119 18.7769C111.23 18.7163 111.366 18.6204 111.527 18.4893C111.608 18.6911 111.704 18.908 111.815 19.1401C111.926 19.3722 112.032 19.6195 112.133 19.8818C112.042 19.9626 111.936 20.0584 111.815 20.1694C111.704 20.2804 111.568 20.4066 111.406 20.5479C111.063 20.8001 110.614 21.1079 110.059 21.4712C109.514 21.8244 108.858 22.2331 108.091 22.6973C107.889 22.8285 107.657 22.9344 107.395 23.0151C106.971 23.0151 106.653 22.9546 106.441 22.8335C106.229 22.7023 106.124 22.4954 106.124 22.2129C106.124 22.1019 106.144 21.9757 106.184 21.8345C106.235 21.6831 106.3 21.5216 106.381 21.3501C106.441 21.2189 106.507 21.0877 106.578 20.9565C106.648 20.8153 106.709 20.674 106.759 20.5327C106.981 19.897 107.148 19.3066 107.259 18.7617C107.38 18.2168 107.44 17.7274 107.44 17.2935C107.44 16.7586 107.355 16.3499 107.183 16.0674C107.022 15.7848 106.774 15.6234 106.441 15.583C106.219 15.7041 105.977 15.8757 105.715 16.0977C105.452 16.3197 105.185 16.5972 104.913 16.9302C104.62 17.2935 104.358 17.5911 104.125 17.8232C103.893 18.0553 103.702 18.2118 103.55 18.2925C103.459 18.4438 103.313 18.6154 103.111 18.8071C102.91 18.9989 102.642 19.2057 102.309 19.4277C102.289 19.4681 102.259 19.5286 102.218 19.6094C102.178 19.6901 102.112 19.7809 102.021 19.8818C101.941 19.6497 101.85 19.4227 101.749 19.2007C101.648 18.9686 101.537 18.7314 101.416 18.4893ZM111.527 18.4893C111.568 18.459 111.603 18.4237 111.633 18.3833C111.653 18.3429 111.664 18.2925 111.664 18.2319C111.835 18.0907 112.027 17.8989 112.239 17.6567C112.461 17.4045 112.708 17.1118 112.98 16.7788C113.202 16.4761 113.43 16.1733 113.662 15.8706C113.904 15.5679 114.161 15.2651 114.434 14.9624C114.656 14.6597 114.873 14.3468 115.084 14.0239C115.306 13.6909 115.539 13.368 115.781 13.0552C116.184 12.8634 116.497 12.7272 116.719 12.6465C116.941 12.5658 117.093 12.5254 117.173 12.5254C117.325 12.5254 117.441 12.5758 117.521 12.6768C117.602 12.7676 117.643 12.9038 117.643 13.0854C117.643 13.146 117.627 13.2318 117.597 13.3428C117.567 13.4538 117.532 13.5749 117.491 13.7061C117.421 13.9079 117.34 14.1147 117.249 14.3267C117.168 14.6799 117.072 15.033 116.961 15.3862C116.85 15.7394 116.744 16.0876 116.644 16.4307C116.543 16.8646 116.462 17.2632 116.401 17.6265C116.351 17.9897 116.326 18.3228 116.326 18.6255C116.326 19.1906 116.351 19.6094 116.401 19.8818C116.462 20.1543 116.543 20.2754 116.644 20.2451C116.744 20.1846 116.871 20.1139 117.022 20.0332C117.173 19.9424 117.35 19.8415 117.552 19.7305C117.733 19.5387 117.935 19.3016 118.157 19.019C118.389 18.7365 118.667 18.4035 118.99 18.02C119.171 17.7375 119.358 17.46 119.55 17.1875C119.62 17.1068 119.701 17.0109 119.792 16.8999C119.893 16.7889 119.984 16.6779 120.064 16.5669C120.256 16.0825 120.468 15.7243 120.7 15.4922C120.942 15.25 121.21 15.1289 121.502 15.1289C121.765 15.1289 121.972 15.1642 122.123 15.2349C122.285 15.2954 122.396 15.3913 122.456 15.5225C122.486 15.5931 122.512 15.7142 122.532 15.8857C122.552 16.0573 122.562 16.2843 122.562 16.5669C122.562 16.6779 122.582 16.8394 122.623 17.0513C122.673 17.2632 122.698 17.4196 122.698 17.5205C122.698 17.8939 122.764 18.1764 122.895 18.3682C123.026 18.5498 123.228 18.6406 123.5 18.6406C123.581 18.6406 123.677 18.6255 123.788 18.5952C123.899 18.5649 124.01 18.5296 124.121 18.4893L124.727 19.8818C124.121 20.2451 123.622 20.5226 123.228 20.7144C122.845 20.896 122.557 20.9868 122.365 20.9868C121.861 20.9868 121.447 20.8556 121.124 20.5933C120.801 20.3309 120.564 19.9424 120.413 19.4277C120.392 19.3066 120.347 19.1855 120.276 19.0645C120.216 18.9434 120.135 18.8223 120.034 18.7012C119.943 18.8021 119.837 18.9232 119.716 19.0645C119.605 19.2057 119.484 19.347 119.353 19.4883C119.081 19.8213 118.808 20.1493 118.536 20.4722C118.263 20.785 117.986 21.0978 117.703 21.4106C117.35 21.8244 116.992 22.1271 116.628 22.3188C116.275 22.5005 115.942 22.5913 115.629 22.5913C115.165 22.5913 114.792 22.4551 114.509 22.1826C114.227 21.9001 114.045 21.4863 113.964 20.9414C113.874 20.4167 113.813 20.008 113.783 19.7153C113.752 19.4227 113.747 19.2461 113.768 19.1855C113.747 18.8929 113.717 18.6709 113.677 18.5195C113.646 18.3682 113.596 18.2925 113.525 18.2925L113.435 18.3379L112.572 19.231C112.542 19.3016 112.491 19.3924 112.42 19.5034C112.35 19.6043 112.254 19.7305 112.133 19.8818C112.092 19.7305 112.022 19.5438 111.921 19.3218C111.82 19.0998 111.689 18.8223 111.527 18.4893ZM124.121 18.4893C124.242 18.348 124.389 18.1764 124.56 17.9746C124.732 17.7728 124.949 17.5306 125.211 17.248C125.312 16.9655 125.403 16.6174 125.483 16.2036C125.574 15.7798 125.65 15.2853 125.71 14.7202C125.781 14.145 125.857 13.6455 125.938 13.2217C126.028 12.7878 126.109 12.4396 126.18 12.1772C126.634 10.7544 126.987 9.65446 127.239 8.87744C127.492 8.09033 127.638 7.62614 127.678 7.48486C128.011 6.56657 128.359 5.74919 128.723 5.03271C129.096 4.30615 129.469 3.67546 129.843 3.14062C129.934 3.03971 130.029 2.93376 130.13 2.82275C130.231 2.70166 130.347 2.57552 130.479 2.44434C130.852 2.27279 131.2 2.10628 131.523 1.94482C131.705 1.8641 131.886 1.7985 132.068 1.74805C132.26 1.69759 132.446 1.67236 132.628 1.67236C132.91 1.67236 133.127 1.80859 133.279 2.08105C133.43 2.34342 133.506 2.74202 133.506 3.27686C133.506 3.60986 133.46 3.98324 133.37 4.39697C133.279 4.80062 133.153 5.24463 132.991 5.729C132.749 6.4152 132.562 6.96517 132.431 7.37891C132.3 7.78255 132.219 8.03483 132.189 8.13574C132.149 8.34766 132.053 8.61507 131.901 8.93799C131.75 9.2609 131.548 9.65446 131.296 10.1187C130.983 10.714 130.736 11.1732 130.554 11.4961C130.383 11.819 130.282 12.0107 130.251 12.0713C130.181 12.1419 130.105 12.2176 130.024 12.2983C129.954 12.369 129.878 12.4447 129.797 12.5254V12.8735C129.747 12.9946 129.696 13.0804 129.646 13.1309C129.474 13.4639 129.242 13.8776 128.95 14.3721C128.667 14.8665 128.314 15.4316 127.89 16.0674C127.648 16.4004 127.466 16.693 127.345 16.9453C127.224 17.1976 127.164 17.4146 127.164 17.5962V18.9282C127.214 19.1906 127.27 19.453 127.33 19.7153C127.391 19.9676 127.451 20.2148 127.512 20.457C127.562 20.7799 127.658 21.0272 127.799 21.1987C127.941 21.3602 128.102 21.4409 128.284 21.4409C128.687 21.4409 129.02 21.3451 129.283 21.1533C129.555 20.9515 129.757 20.6488 129.888 20.2451C129.616 20.1341 129.404 20.008 129.252 19.8667C129.111 19.7153 129.041 19.5589 129.041 19.3975C129.091 19.2965 129.131 19.1855 129.162 19.0645C129.202 18.9434 129.242 18.8172 129.283 18.686C129.293 18.6154 129.308 18.5448 129.328 18.4741C129.358 18.4035 129.379 18.3127 129.389 18.2017C129.853 17.354 130.277 16.7183 130.66 16.2944C131.044 15.8605 131.387 15.6436 131.689 15.6436C131.76 15.6436 131.876 15.6587 132.038 15.689C132.199 15.7091 132.32 15.7192 132.401 15.7192C132.461 15.7192 132.557 15.7041 132.688 15.6738C132.82 15.6335 132.916 15.6133 132.976 15.6133C133.148 15.6133 133.269 15.6738 133.339 15.7949C133.41 15.9059 133.445 16.0623 133.445 16.2642C133.445 16.6981 133.319 17.1673 133.067 17.6719C132.815 18.1764 132.688 18.464 132.688 18.5347C132.688 18.5952 132.729 18.6608 132.81 18.7314C132.87 18.7113 132.931 18.681 132.991 18.6406C133.062 18.6003 133.127 18.5498 133.188 18.4893C133.228 18.6204 133.289 18.7718 133.37 18.9434C133.46 19.1149 133.556 19.3117 133.657 19.5337C133.708 19.6043 133.743 19.6699 133.763 19.7305C133.783 19.7809 133.793 19.8314 133.793 19.8818C133.37 20.3158 132.996 20.6488 132.673 20.8809C132.35 21.113 132.078 21.2391 131.856 21.2593C131.785 21.2593 131.7 21.2593 131.599 21.2593C131.498 21.2492 131.377 21.2391 131.235 21.229C131.094 21.4006 130.923 21.5973 130.721 21.8193C130.529 22.0413 130.312 22.3037 130.07 22.6064C129.969 22.6771 129.843 22.7729 129.691 22.894C129.54 23.005 129.368 23.1463 129.177 23.3179C128.884 23.6105 128.591 23.8224 128.299 23.9536C128.016 24.0949 127.729 24.1655 127.436 24.1655C127.305 24.1655 127.174 24.1453 127.042 24.105C126.921 24.0747 126.78 24.0091 126.619 23.9082C126.498 23.8477 126.366 23.7619 126.225 23.6509C126.094 23.55 125.948 23.4289 125.786 23.2876C125.584 22.672 125.438 22.1019 125.347 21.5771C125.256 21.0524 125.211 20.5529 125.211 20.0786C125.211 19.9979 125.201 19.9323 125.181 19.8818C125.171 19.8213 125.15 19.7708 125.12 19.7305L124.984 19.6851L124.878 19.7305L124.727 19.8818C124.646 19.6598 124.555 19.4328 124.454 19.2007C124.353 18.9686 124.242 18.7314 124.121 18.4893ZM131.129 6.18311C131.129 6.13265 131.119 6.09229 131.099 6.06201C131.089 6.02165 131.064 5.98633 131.023 5.95605C130.963 5.94596 130.892 6.0166 130.812 6.16797C130.731 6.30924 130.655 6.51611 130.584 6.78857C130.544 6.9904 130.453 7.22754 130.312 7.5C130.171 7.77246 129.989 8.09538 129.767 8.46875C129.575 8.79167 129.389 9.15495 129.207 9.55859C129.025 9.95215 128.844 10.381 128.662 10.8452C128.43 11.3901 128.258 11.8695 128.147 12.2832C128.036 12.6969 127.981 13.0299 127.981 13.2822L128.011 13.4185C128.092 13.3781 128.223 13.1813 128.405 12.8281C128.597 12.4749 128.844 11.9653 129.146 11.2993C129.429 10.714 129.636 10.2549 129.767 9.92188C129.908 9.58887 129.994 9.36686 130.024 9.25586C130.105 8.9834 130.201 8.66553 130.312 8.30225C130.423 7.93896 130.549 7.53532 130.69 7.09131C130.791 6.91976 130.877 6.77344 130.948 6.65234C131.008 6.57161 131.054 6.49089 131.084 6.41016C131.114 6.32943 131.129 6.25374 131.129 6.18311ZM133.657 17.8232L135.035 16.915C135.085 16.8646 135.146 16.799 135.216 16.7183C135.287 16.6274 135.368 16.5013 135.458 16.3398C135.529 16.2087 135.62 16.0977 135.731 16.0068C135.852 15.916 135.988 15.8353 136.14 15.7646C136.22 15.6637 136.336 15.5376 136.488 15.3862C136.639 15.2349 136.831 15.0583 137.063 14.8564C137.174 14.7959 137.315 14.7101 137.487 14.5991C137.658 14.478 137.845 14.3216 138.047 14.1299C138.965 13.262 139.767 12.6112 140.454 12.1772C141.15 11.7433 141.735 11.5264 142.209 11.5264C142.472 11.5264 142.664 11.5819 142.785 11.6929C142.916 11.8039 142.981 11.9603 142.981 12.1621C142.981 12.374 142.941 12.5607 142.86 12.7222C142.79 12.8836 142.674 13.0199 142.512 13.1309C142.26 13.3125 141.987 13.5143 141.695 13.7363C141.533 13.9482 141.337 14.1753 141.104 14.4175C140.872 14.6496 140.6 14.8817 140.287 15.1138C140.186 15.245 140.1 15.361 140.03 15.4619C139.979 15.5124 139.883 15.6032 139.742 15.7344C139.601 15.8656 139.414 16.0169 139.182 16.1885C139.081 16.4105 138.859 16.6981 138.516 17.0513C138.183 17.4045 137.734 17.8283 137.169 18.3228C137.098 18.3934 136.972 18.5549 136.791 18.8071C136.609 19.0594 136.372 19.3924 136.079 19.8062L136.185 19.9424C136.407 19.8717 136.639 19.7507 136.881 19.5791C137.124 19.4076 137.391 19.1805 137.684 18.8979C138.027 18.5851 138.304 18.3328 138.516 18.1411C138.738 17.9393 138.895 17.8081 138.985 17.7476C139.056 17.7072 139.127 17.6668 139.197 17.6265C139.268 17.5861 139.349 17.5356 139.439 17.4751C139.904 16.9201 140.338 16.5114 140.741 16.249C141.145 15.9766 141.518 15.8403 141.861 15.8403C142.073 15.8403 142.235 15.9261 142.346 16.0977C142.457 16.2591 142.522 16.5063 142.542 16.8394C142.522 17.3439 142.512 17.8283 142.512 18.2925C142.502 18.6154 142.588 18.908 142.77 19.1704C142.961 19.4227 143.208 19.5488 143.511 19.5488C143.602 19.5488 143.688 19.5236 143.769 19.4731C143.859 19.4227 143.95 19.3571 144.041 19.2764C144.112 19.1855 144.177 19.0998 144.238 19.019C144.308 18.9383 144.379 18.8576 144.45 18.7769C144.49 18.7567 144.546 18.7214 144.616 18.6709C144.697 18.6204 144.773 18.5599 144.843 18.4893C144.985 18.792 145.101 19.0594 145.191 19.2915C145.292 19.5135 145.368 19.7103 145.418 19.8818C145.186 20.0938 144.954 20.3158 144.722 20.5479C144.5 20.7699 144.263 20.9818 144.011 21.1836C143.708 21.4157 143.415 21.5923 143.133 21.7134C142.85 21.8244 142.568 21.8799 142.285 21.8799C141.629 21.8799 141.125 21.6932 140.771 21.3198C140.418 20.9465 140.211 20.3813 140.151 19.6245C140.151 19.5337 140.136 19.4429 140.105 19.3521C140.085 19.2511 140.035 19.1502 139.954 19.0493C139.904 19.0998 139.848 19.1553 139.788 19.2158C139.727 19.2663 139.656 19.3369 139.576 19.4277C139.444 19.5286 139.278 19.6548 139.076 19.8062C138.884 19.9575 138.657 20.1392 138.395 20.3511C138.042 20.7144 137.744 21.012 137.502 21.2441C137.26 21.4762 137.088 21.6427 136.987 21.7437C136.785 21.9152 136.548 22.0868 136.276 22.2583C136.014 22.4299 135.716 22.6064 135.383 22.7881C135.171 22.8991 134.989 22.9849 134.838 23.0454C134.687 23.116 134.576 23.1514 134.505 23.1514C134.021 23.1514 133.662 23.0353 133.43 22.8032C133.198 22.561 133.082 22.1927 133.082 21.6982C133.082 21.4258 133.143 21.1685 133.264 20.9263C133.375 20.674 133.546 20.4318 133.778 20.1997C133.799 20.0685 133.809 19.9626 133.809 19.8818C133.809 19.8314 133.793 19.7809 133.763 19.7305C133.743 19.6699 133.713 19.6043 133.672 19.5337C133.612 19.3924 133.546 19.236 133.476 19.0645C133.395 18.8828 133.309 18.6911 133.218 18.4893C133.259 18.4489 133.319 18.3732 133.4 18.2622C133.471 18.1411 133.556 17.9948 133.657 17.8232ZM144.828 18.4893C144.949 18.2773 145.106 18.0654 145.297 17.8535C145.489 17.6315 145.731 17.4045 146.024 17.1724C146.054 16.9705 146.084 16.7738 146.115 16.582C146.145 16.3802 146.165 16.1784 146.175 15.9766C146.206 15.8353 146.251 15.6688 146.312 15.4771C146.382 15.2853 146.458 15.0785 146.539 14.8564C146.629 14.6344 146.75 14.3569 146.902 14.0239C147.063 13.6909 147.27 13.3175 147.522 12.9038C147.734 12.6717 147.956 12.4194 148.188 12.147C148.421 11.8644 148.653 11.5819 148.885 11.2993C148.996 11.2085 149.117 11.1227 149.248 11.042C149.379 10.9613 149.51 10.8704 149.642 10.7695C149.763 10.7292 149.899 10.6938 150.05 10.6636C150.202 10.6333 150.368 10.6182 150.55 10.6182C150.802 10.6182 151.004 10.6434 151.155 10.6938C151.317 10.7443 151.448 10.8301 151.549 10.9512C151.619 11.0319 151.685 11.153 151.746 11.3145C151.816 11.4759 151.882 11.6727 151.942 11.9048C151.973 12.1066 152.008 12.3286 152.048 12.5708C152.048 12.5103 152.028 12.5355 151.988 12.6465C151.958 12.7575 151.907 12.9341 151.836 13.1763L151.7 13.6606C151.559 14.145 151.241 14.7051 150.747 15.3408C150.252 15.9766 149.586 16.7031 148.749 17.5205C148.678 17.5911 148.617 17.682 148.567 17.793C148.516 17.8939 148.491 18.0049 148.491 18.126C148.491 18.3379 148.527 18.5246 148.597 18.686C148.678 18.8475 148.789 18.9686 148.93 19.0493C149.011 19.1099 149.137 19.1704 149.309 19.231C149.49 19.2915 149.702 19.347 149.944 19.3975C150.338 19.3672 150.696 19.3016 151.019 19.2007C151.342 19.0998 151.63 18.9787 151.882 18.8374C151.932 18.8071 152.013 18.7668 152.124 18.7163C152.235 18.6558 152.346 18.5801 152.457 18.4893C152.588 18.7819 152.704 19.0443 152.805 19.2764C152.906 19.5085 152.987 19.7103 153.047 19.8818C152.472 20.4469 151.947 20.8758 151.473 21.1685C151.009 21.451 150.58 21.5923 150.187 21.5923C150.025 21.6932 149.838 21.7689 149.626 21.8193C149.425 21.8597 149.182 21.8799 148.9 21.8799C148.527 21.8799 148.194 21.8244 147.901 21.7134C147.618 21.6024 147.381 21.4409 147.189 21.229C147.089 21.1281 146.988 20.9818 146.887 20.79C146.786 20.5882 146.68 20.3511 146.569 20.0786C146.478 19.8566 146.392 19.6951 146.312 19.5942C146.231 19.4832 146.14 19.4277 146.039 19.4277C145.958 19.4277 145.868 19.4681 145.767 19.5488C145.666 19.6195 145.555 19.7305 145.434 19.8818C145.393 19.7305 145.323 19.5438 145.222 19.3218C145.121 19.0998 144.99 18.8223 144.828 18.4893ZM149.672 13.5698C149.45 13.5698 149.152 13.8625 148.779 14.4478C148.405 15.0229 148.219 15.4468 148.219 15.7192C148.219 15.7798 148.229 15.8252 148.249 15.8555C148.279 15.8757 148.335 15.8857 148.416 15.8857C148.527 15.8857 148.617 15.8302 148.688 15.7192C148.759 15.5981 148.824 15.4871 148.885 15.3862C148.996 15.2853 149.102 15.1794 149.203 15.0684C149.314 14.9473 149.42 14.8312 149.521 14.7202C149.642 14.5789 149.732 14.4377 149.793 14.2964C149.854 14.1551 149.884 14.0138 149.884 13.8726C149.884 13.7817 149.864 13.7111 149.823 13.6606C149.793 13.6001 149.743 13.5698 149.672 13.5698ZM168.169 19.6699C167.987 19.8516 167.796 20.0282 167.594 20.1997C167.402 20.3612 167.21 20.5125 167.019 20.6538C166.716 20.8657 166.413 21.0675 166.11 21.2593C165.818 21.4409 165.535 21.5771 165.263 21.668C164.96 21.7689 164.672 21.8244 164.4 21.8345C164.138 21.8345 163.931 21.7941 163.779 21.7134C163.598 21.6226 163.472 21.4914 163.401 21.3198C163.33 21.1382 163.295 20.9414 163.295 20.7295C163.295 20.4873 163.325 20.2249 163.386 19.9424C163.456 19.6598 163.537 19.3874 163.628 19.125C163.668 18.9837 163.724 18.8324 163.794 18.6709C163.865 18.4993 163.931 18.3328 163.991 18.1714C164.112 17.8687 164.213 17.5962 164.294 17.354C164.375 17.1118 164.385 16.9756 164.324 16.9453C164.274 16.9251 164.168 16.9806 164.006 17.1118C163.845 17.243 163.658 17.4196 163.446 17.6416C163.265 17.8333 163.058 18.0553 162.826 18.3076C162.604 18.5599 162.377 18.8223 162.145 19.0947C161.963 19.3066 161.761 19.5488 161.539 19.8213C161.317 20.0938 161.1 20.3612 160.888 20.6235C160.797 20.7244 160.717 20.8556 160.646 21.0171C160.585 21.1685 160.515 21.2896 160.434 21.3804C160.273 21.5923 160.111 21.7638 159.95 21.895C159.788 22.0161 159.677 22.112 159.617 22.1826C159.435 22.3844 159.198 22.4198 158.905 22.2886C158.623 22.1574 158.492 21.9808 158.512 21.7588C158.512 21.6982 158.486 21.6326 158.436 21.562C158.386 21.4914 158.36 21.4157 158.36 21.335C158.37 21.1836 158.416 21.0171 158.497 20.8354C158.577 20.6538 158.618 20.4772 158.618 20.3057C158.618 20.1442 158.633 19.9727 158.663 19.791C158.693 19.6094 158.708 19.4277 158.708 19.2461C158.729 19.0039 158.744 18.7617 158.754 18.5195C158.764 18.2773 158.769 18.0452 158.769 17.8232C158.779 17.6315 158.769 17.4448 158.739 17.2632C158.708 17.0815 158.693 16.9049 158.693 16.7334C158.693 16.4811 158.714 16.2389 158.754 16.0068C158.804 15.7747 158.83 15.5881 158.83 15.4468C158.83 15.366 158.799 15.3257 158.739 15.3257C158.688 15.3257 158.638 15.3862 158.587 15.5073C158.547 15.6284 158.522 15.7949 158.512 16.0068C158.502 16.2087 158.466 16.3953 158.406 16.5669C158.295 16.8595 158.169 17.1724 158.027 17.5054C157.896 17.8384 157.76 18.1714 157.619 18.5044C157.528 18.7163 157.432 18.9333 157.331 19.1553C157.23 19.3773 157.134 19.5942 157.043 19.8062C156.963 19.9676 156.852 20.119 156.71 20.2603C156.579 20.3914 156.483 20.5277 156.423 20.6689C156.342 20.8203 156.282 20.9868 156.241 21.1685C156.211 21.3501 156.155 21.5116 156.075 21.6528C155.974 21.8345 155.863 22.0312 155.742 22.2432C155.631 22.445 155.525 22.6216 155.424 22.7729C155.303 22.9546 155.167 23.106 155.015 23.2271C154.874 23.3481 154.743 23.4541 154.622 23.5449C154.5 23.6357 154.334 23.6812 154.122 23.6812C153.92 23.6812 153.759 23.6812 153.638 23.6812C153.537 23.6812 153.436 23.666 153.335 23.6357C153.234 23.6156 153.138 23.5752 153.047 23.5146C152.957 23.4541 152.871 23.3734 152.79 23.2725C152.709 23.1816 152.639 23.0605 152.578 22.9092C152.548 22.8385 152.497 22.7477 152.427 22.6367C152.356 22.5257 152.306 22.3945 152.275 22.2432C152.235 22.0918 152.21 21.9152 152.2 21.7134C152.19 21.5116 152.185 21.2845 152.185 21.0322C152.185 20.8405 152.2 20.6235 152.23 20.3813C152.26 20.1392 152.285 19.8818 152.306 19.6094C152.316 19.4378 152.336 19.2562 152.366 19.0645C152.396 18.8727 152.427 18.6759 152.457 18.4741C152.487 18.3026 152.694 18.2521 153.078 18.3228C153.471 18.3833 153.658 18.4489 153.638 18.5195C153.638 18.5801 153.633 18.6608 153.623 18.7617C153.612 18.8626 153.607 18.9736 153.607 19.0947C153.607 19.2764 153.618 19.4832 153.638 19.7153C153.668 19.9474 153.703 20.1543 153.744 20.3359C153.794 20.5075 153.855 20.6538 153.925 20.7749C154.006 20.8859 154.102 20.9414 154.213 20.9414C154.344 20.9414 154.47 20.901 154.591 20.8203C154.712 20.7396 154.833 20.6336 154.955 20.5024C155.035 20.4116 155.121 20.2956 155.212 20.1543C155.303 20.0029 155.389 19.8465 155.469 19.6851C155.53 19.564 155.58 19.4227 155.621 19.2612C155.671 19.0998 155.732 18.9383 155.802 18.7769C155.873 18.6255 155.944 18.4741 156.014 18.3228C156.085 18.1613 156.15 18.0049 156.211 17.8535C156.231 17.793 156.271 17.7223 156.332 17.6416C156.403 17.5609 156.448 17.4852 156.468 17.4146C156.499 17.3237 156.519 17.2329 156.529 17.1421C156.549 17.0412 156.574 16.9504 156.604 16.8696C156.645 16.7586 156.675 16.6426 156.695 16.5215C156.715 16.4004 156.741 16.2793 156.771 16.1582C156.801 16.0472 156.852 15.9362 156.922 15.8252C157.003 15.7041 157.059 15.5931 157.089 15.4922C157.119 15.4014 157.165 15.3206 157.225 15.25C157.286 15.1794 157.331 15.0986 157.361 15.0078C157.392 14.917 157.407 14.811 157.407 14.6899C157.417 14.5688 157.432 14.4629 157.452 14.3721C157.493 14.2207 157.538 14.0693 157.588 13.918C157.649 13.7565 157.699 13.6001 157.74 13.4487C157.78 13.3075 157.82 13.1712 157.861 13.04C157.901 12.8988 157.937 12.7676 157.967 12.6465C157.987 12.5758 158.073 12.4901 158.224 12.3892C158.375 12.2882 158.532 12.1924 158.693 12.1016C158.814 12.041 158.951 11.9754 159.102 11.9048C159.264 11.8341 159.42 11.7736 159.571 11.7231C159.723 11.6727 159.884 11.6374 160.056 11.6172C160.237 11.597 160.394 11.597 160.525 11.6172C160.656 11.6374 160.772 11.6828 160.873 11.7534C160.974 11.8241 161.029 11.9199 161.04 12.041C161.05 12.1924 161.055 12.369 161.055 12.5708C161.055 12.7625 161.055 12.9593 161.055 13.1611C161.055 13.3428 161.065 13.5345 161.085 13.7363C161.115 13.9382 161.13 14.14 161.13 14.3418C161.13 14.6042 161.125 14.8009 161.115 14.9321C161.115 15.0633 161.11 15.25 161.1 15.4922C161.08 15.7646 161.05 16.022 161.009 16.2642C160.979 16.5063 160.964 16.7233 160.964 16.915C160.964 17.1976 160.994 17.5205 161.055 17.8838C161.337 17.6921 161.569 17.4953 161.751 17.2935C161.781 17.2531 161.832 17.2228 161.902 17.2026C161.973 17.1724 162.034 17.127 162.084 17.0664C162.124 17.026 162.16 16.9655 162.19 16.8848C162.23 16.7939 162.276 16.7233 162.326 16.6729C162.387 16.6123 162.462 16.5568 162.553 16.5063C162.654 16.4458 162.735 16.3853 162.795 16.3247C162.856 16.2541 162.901 16.1683 162.932 16.0674C162.972 15.9665 163.022 15.8857 163.083 15.8252C163.174 15.7142 163.265 15.6082 163.355 15.5073C163.456 15.3963 163.567 15.2803 163.688 15.1592C163.85 14.9775 164.011 14.8161 164.173 14.6748C164.334 14.5234 164.491 14.3519 164.642 14.1602C164.844 13.918 165 13.7161 165.111 13.5547C165.232 13.3932 165.364 13.2217 165.505 13.04C165.545 12.9795 165.707 12.9341 165.989 12.9038C166.272 12.8735 166.509 12.8735 166.701 12.9038C166.882 12.9341 167.034 12.9997 167.155 13.1006C167.286 13.2015 167.316 13.3428 167.246 13.5244C167.215 13.6152 167.16 13.7666 167.079 13.9785C167.008 14.1904 166.918 14.4326 166.807 14.7051C166.766 14.8161 166.711 14.9574 166.64 15.1289C166.58 15.2904 166.519 15.4518 166.458 15.6133C166.398 15.7949 166.332 15.9816 166.262 16.1733C166.201 16.355 166.156 16.5063 166.125 16.6274C166.045 16.8595 165.969 17.0916 165.898 17.3237C165.838 17.5558 165.787 17.7728 165.747 17.9746C165.687 18.3278 165.656 18.6305 165.656 18.8828C165.666 19.1351 165.732 19.2915 165.853 19.3521C165.934 19.3924 166.065 19.3722 166.247 19.2915C166.438 19.2108 166.645 19.0897 166.867 18.9282C166.978 18.8374 167.094 18.7415 167.215 18.6406C167.336 18.5296 167.447 18.4186 167.548 18.3076L168.169 19.6699Z" fill="#DD4053"/>
</svg>
