<svg id="Слой_1" data-name="Слой 1" xmlns="http://www.w3.org/2000/svg" xmlns:xlink="http://www.w3.org/1999/xlink" viewBox="0 0 55 55"><defs><style>.cls-1{fill:none;}.cls-2{fill:#dd4053;}.cls-3{clip-path:url(#clip-path);}.cls-4{fill:#fff;}</style><clipPath id="clip-path"><rect class="cls-1" x="17.5" y="17.5" width="20" height="20"/></clipPath></defs><rect class="cls-2" width="55" height="55" rx="2"/><g class="cls-3"><path class="cls-4" d="M17.52,35.46V20.72l0-.13a2.29,2.29,0,0,1,2.3-1.93h2.24v-.3a.83.83,0,0,1,.53-.77,1.29,1.29,0,0,1,.21-.07h.24l0,0a.86.86,0,0,1,.7.86v.26h7.43c0-.11,0-.21,0-.31a.81.81,0,0,1,.46-.73,1.48,1.48,0,0,1,.27-.1h.24l0,0a.86.86,0,0,1,.7.86v.26h2.31a2.29,2.29,0,0,1,2.14,1.56c.05.17.08.35.12.52v14.7a.19.19,0,0,0,0,.08A2.24,2.24,0,0,1,36,37.39a4.72,4.72,0,0,1-.54.13H19.6l-.07,0a2.25,2.25,0,0,1-1.9-1.56C17.58,35.79,17.56,35.62,17.52,35.46ZM23.8,20.38c0,.11,0,.2,0,.3a1.14,1.14,0,0,1-.07.32.83.83,0,0,1-.95.5.86.86,0,0,1-.69-.82v-.3H20.42a1.13,1.13,0,0,0-1.18,1.18V34.61a1.14,1.14,0,0,0,1.18,1.19h14.2a1.14,1.14,0,0,0,1.19-1.18V21.56a1.14,1.14,0,0,0-1.19-1.18H33c0,.11,0,.21,0,.31a.86.86,0,0,1-.79.83.85.85,0,0,1-.9-.7c0-.14,0-.29,0-.44Z"/><path class="cls-4" d="M26.9,30.39a1.05,1.05,0,0,1,.07-.11L31.29,26a.86.86,0,0,1,1.31,1.1.52.52,0,0,1-.1.11l-5,5a.84.84,0,0,1-1.08.17.9.9,0,0,1-.19-.15L23.1,29a.86.86,0,1,1,1.21-1.21L25.48,29l1.32,1.33Z"/></g></svg>