<svg width="20" height="20" xmlns="http://www.w3.org/2000/svg">

 <g>
  <title>background</title>
  <rect fill="none" id="canvas_background" height="402" width="582" y="-1" x="-1"/>
 </g>
 <g>
  <title>Layer 1</title>
  <path id="svg_1" fill="#dd4053" d="m19.4284,2.73421c-0.2942,-0.29473 -0.7716,-0.29524 -1.0658,-0.00125l-9.04271,9.01884l-3.26258,-3.54349c-0.28191,-0.30601 -0.75855,-0.32586 -1.06507,-0.04398c-0.30629,0.28191 -0.3259,0.75879 -0.04399,1.06507l3.79399,4.1204c0.13894,0.151 0.3334,0.2387 0.53843,0.2429c0.00551,0.0003 0.01082,0.0003 0.0161,0.0003c0.19926,0 0.39094,-0.0792 0.53215,-0.2199l9.59798,-9.57284c0.295,-0.29394 0.2955,-0.77132 0.0015,-1.06605z"/>
  <path id="svg_2" fill="#dd4053" d="m19.2462,9.24621c-0.4163,0 -0.7537,0.33742 -0.7537,0.75379c0,4.6829 -3.8096,8.4925 -8.4925,8.4925c-4.68266,0 -8.49246,-3.8096 -8.49246,-8.4925c0,-4.68266 3.8098,-8.49246 8.49246,-8.49246c0.4163,0 0.7538,-0.33742 0.7538,-0.75375c0,-0.41637 -0.3375,-0.75379 -0.7538,-0.75379c-5.51406,0 -10,4.48594 -10,10c0,5.5138 4.48594,10 10,10c5.5138,0 10,-4.4862 10,-10c0,-0.41633 -0.3374,-0.75379 -0.7538,-0.75379z"/>
 </g>
</svg>