<?xml version="1.0" encoding="UTF-8"?>
<svg xmlns="http://www.w3.org/2000/svg" xmlns:xlink="http://www.w3.org/1999/xlink" width="17px" height="17px" viewBox="0 0 17 17" version="1.1">
<g id="surface1">
<path style=" stroke:none;fill-rule:nonzero;fill:rgb(20.392157%,20.392157%,20.392157%);fill-opacity:1;" d="M 16.742188 14.769531 L 12.550781 10.757812 C 13.628906 9.578125 14.21875 8.09375 14.21875 6.546875 C 14.21875 2.9375 11.03125 0 7.109375 0 C 3.1875 0 0 2.9375 0 6.546875 C 0 10.15625 3.1875 13.09375 7.109375 13.09375 C 8.582031 13.09375 9.984375 12.683594 11.183594 11.910156 L 15.40625 15.953125 C 15.582031 16.121094 15.820312 16.214844 16.074219 16.214844 C 16.3125 16.214844 16.542969 16.132812 16.714844 15.976562 C 17.085938 15.652344 17.097656 15.109375 16.742188 14.769531 Z M 7.109375 1.707031 C 10.007812 1.707031 12.363281 3.878906 12.363281 6.546875 C 12.363281 9.214844 10.007812 11.386719 7.109375 11.386719 C 4.210938 11.386719 1.855469 9.214844 1.855469 6.546875 C 1.855469 3.878906 4.210938 1.707031 7.109375 1.707031 Z M 7.109375 1.707031 "/>
</g>
</svg>
